<?xml version="1.0" encoding="UTF-8"?>
<svg version="1.1" viewBox="0 0 2048 2048" width="1280" height="1280" xmlns="http://www.w3.org/2000/svg">
<path transform="translate(1616,225)" d="m0 0 23 1 16 3 18 6 16 8 12 8 14 12 10 11 10 15 7 14 5 16 2 12 1 12v1360l-2 21-5 17-7 16-9 14-13 15h-2v2l-17 13-21 11-19 6-21 4h-27l-25-5-20-8-11-6-14-10-12-11-9-11-7-10-8-16-6-18-2-12-1-510-26 15-23 14-365 219-23 14-28 17-32 19-28 17-32 19-25 15-28 17-32 19-28 17-32 19-20 12-28 17-22 13-28 17-17 10-28 17-22 13-15 9-29 17-15 9-29 17-25 14-16 8-21 10-19 7-14 4-11 2h-19l-20-4-21-8-16-9-10-8-12-11-11-13-8-14-6-16-5-25-3-28-2-40-1-56v-1143l1-47 2-41 4-32 5-21 5-14 8-13 8-11h2l2-4 12-11 10-7 14-8 14-6 19-5 7-1h25l15 3 22 8 24 11 23 12 24 14 26 15 28 17 19 11 695 417 28 17 32 19 28 17 32 19 40 24 18 11 3 1v-493l1-17 4-19 7-18 9-15 9-11 6-7h2v-2l17-13 14-8 13-6 18-5 12-2z"/>
</svg>
