<?xml version="1.0" encoding="UTF-8"?>
<svg version="1.1" viewBox="0 0 2048 2048" width="1280" height="1280" xmlns="http://www.w3.org/2000/svg">
<path transform="translate(185)" d="m0 0h42v2l7 1 15 6 19 10 23 13 18 10 28 16 27 15 23 13 10 6 11 6 54 30 23 13 25 14 23 13 25 14 23 13 25 14 23 13 25 14 23 13 25 14 23 13 25 14 23 13 25 14 23 13 25 14 23 13 25 14 23 13 25 14 23 13 25 14 23 13 25 14 23 13 25 14 23 13 25 14 23 13 25 14 23 13 25 14 23 13 25 14 23 13 25 14 23 13 25 14 23 13 25 14 23 13 25 14 23 13 25 14 23 13 25 14 23 13 25 14 23 13 25 14 23 13 25 14 23 13 25 14 23 13 25 14 23 13 25 14 23 13 22 13 14 11 9 9 10 14 8 17 4 14 2 12v20l-4 20-7 17-8 13-9 11-7 7-16 11-21 12-50 28-23 13-25 14-23 13-25 14-23 13-50 28-24 14-24 13-46 26-50 28-21 12-27 15-24 14-24 13-46 26-50 28-21 12-27 15-24 14-24 13-46 26-50 28-21 12-27 15-24 14-24 13-46 26-50 28-21 12-27 15-24 14-24 13-46 26-50 28-21 12-27 15-24 14-24 13-46 26-50 28-21 12-27 15-28 16-52 29-23 13-50 28-23 13-25 14-21 12-25 14-15 7-18 6h-36l-21-7-16-8-13-10-12-12-10-15-6-12-5-16-2-12-1-22v-1805l1-38 3-16 6-16 6-11 7-10 2-3h2l2-4 8-8 10-7 14-8 16-6z"/>
<path transform="translate(182,2047)" d="m0 0 2 1z"/>
</svg>
