<?xml version="1.0" encoding="UTF-8"?>
<svg version="1.1" viewBox="0 0 2048 2048" width="1280" height="1280" xmlns="http://www.w3.org/2000/svg">
<path transform="translate(482,319)" d="m0 0 1115 1 21 3 19 6 17 8 11 7 13 10 12 11v2h2l10 13 8 13 8 16 6 18 3 15 1 10 1 397 11-12 9-11 10-11 7-8 9-11 13-15 9-10 9-11 10-11 18-22h2l2-4 9-10 9-11 11-12 8-10 9-10 7-8 10-10 14-8 9-3 5-1h21l12 3 12 6 10 8 8 9 8 14 4 15v18l-3 12-7 14-8 10-11 13-12 14-9 10-9 11-13 15-12 14-9 10-9 11-9 10-9 11-10 11-9 11-11 12-9 11-13 15-12 14-9 10-9 11-9 10-9 11-11 12-9 11-10 11-9 11-10 11-9 11-2 3h-2l-2 4-12 13-12 9-12 5-14 3h-31l-13-3-14-7-10-9-7-7-22-28-13-16-10-13-11-14-12-15-11-14-13-16-10-13-12-15-22-28-13-16-13-17-13-16-11-14-8-10-14-18-13-16-10-13-13-16-13-18-7-16-2-11v-9l3-15 6-14 8-11 8-7 11-7 13-5 5-1h21l12 3 12 6 11 9 10 11 10 13 12 15 22 28 13 16 10 13 8 10 11 14 13 16 33 42 14 17 3 4v2h2l-1-7v-386l-2-10-4-5-5-2h-1128l-5 2-5 6-1 10-1 244-2 11-6 14-8 11-10 9-10 6-15 5-7 1h-14l-16-4-13-7-12-11-9-14-4-10-2-9-1-118v-121l1-26 3-17 5-17 8-18 9-15 14-17 9-9 13-10 13-8 14-7 18-6 14-3 9-1z"/>
<path transform="translate(375,959)" d="m0 0h15l14 3 16 8 10 9 8 9 11 17 10 13 13 16 13 17 13 16 11 14 14 18 13 16 10 13 11 14 13 16 12 16 10 12 13 17 13 16 33 42 13 16 21 27 8 13 4 11 2 11v9l-3 15-8 16-7 9-7 7-14 8-13 4-7 1h-13l-14-3-14-7-10-9-7-7-22-28-13-16-10-13-12-15-44-56-20-25-11-14-1-1v372l3 7 4 4 9 2h1119l8-2 6-7 1-7v-220l1-29 4-15 6-11 9-10 9-8 13-7 13-3h20l12 3 12 6 9 7 7 7 7 11 5 11 2 10v259l-2 17-4 16-8 20-9 16-10 13-9 10-7 7-16 12-21 11-16 6-24 5-12 1h-1132l-20-2-20-5-21-9-16-10-10-8-10-9-10-11-11-16-9-17-8-24-3-20-1-213v-175h-2l-2 5-12 14-13 17-13 16-8 10-11 14-13 16-8 10-11 14-13 16-32 40-9 10-12 9-12 5-13 3h-15l-16-4-13-7-12-11-7-10-6-13-2-8v-21l3-11 4-9 7-11 13-16 11-14 13-16 11-14 13-16 11-14 13-16 11-14 13-16 11-14 13-16 11-14 13-16 11-14 13-16 11-14 13-16 11-14 13-16 12-16 10-15 11-12 10-7 11-5z"/>
</svg>
